<?xml version="1.0" encoding="UTF-8"?>
<svg xmlns="http://www.w3.org/2000/svg" xmlns:xlink="http://www.w3.org/1999/xlink" viewBox="0 0 30 30" width="30px" height="30px">
<g id="surface82241538">
<path style=" stroke:none;fill-rule:nonzero;fill:rgb(100%,100%,100%);fill-opacity:1;" d="M 23 3 C 20.789062 3 19 4.789062 19 7 C 19 7.28125 19.035156 7.5625 19.09375 7.835938 L 10.011719 12.378906 C 9.253906 11.503906 8.15625 11.003906 7 11 C 4.789062 11 3 12.789062 3 15 C 3 17.210938 4.789062 19 7 19 C 8.15625 19 9.253906 18.496094 10.015625 17.625 L 19.089844 22.164062 C 19.03125 22.4375 19 22.71875 19 23 C 19 25.210938 20.789062 27 23 27 C 25.210938 27 27 25.210938 27 23 C 27 20.789062 25.210938 19 23 19 C 21.84375 19 20.746094 19.503906 19.984375 20.375 L 10.910156 15.835938 C 10.96875 15.5625 11 15.28125 11 15 C 11 14.71875 10.964844 14.441406 10.90625 14.167969 L 19.988281 9.625 C 20.746094 10.496094 21.84375 11 23 11 C 25.210938 11 27 9.210938 27 7 C 27 4.789062 25.210938 3 23 3 Z M 23 3 "/>
</g>
</svg>
